<?xml version="1.0" standalone="no"?>
<svg xmlns="http://www.w3.org/2000/svg" xmlns:xlink="http://www.w3.org/1999/xlink" width="263pt" height="720pt" viewBox="0.00 0.00 262.81 720.00">
<g id="graph0" class="graph" transform="translate(1.5899320840835571,718.4108218973306) scale(0.3974830210208893)" data-name="p_TSP">

<polygon fill="white" stroke="none" points="-4,4 -4,-1807.4 657.18,-1807.4 657.18,4 -4,4" style=""/>
<!-- GT -->
<g id="node1" class="node" pointer-events="visible" data-name="GT">

<polygon fill="none" stroke="black" stroke-dasharray="1,5" points="351,-1803.4 297,-1803.4 297,-1767.4 351,-1767.4 351,-1803.4" style=""/>
<text text-anchor="middle" x="324" y="-1781.2" font-family="Times,serif" font-size="14.00" style="">TSP</text>
</g>
<!-- S1 -->
<g id="node2" class="node" pointer-events="visible" data-name="S1">

<ellipse fill="none" stroke="black" cx="324" cy="-1712.4" rx="27" ry="18" style=""/>
<text text-anchor="middle" x="324" y="-1708.2" font-family="Times,serif" font-size="14.00" style="">S1</text>
</g>
<!-- GT&#45;&gt;S1 -->
<g id="edge1" class="edge" data-name="GT-&gt;S1">

<path fill="none" stroke="black" d="M324,-1767.21C324,-1759.63 324,-1750.5 324,-1741.94" style=""/>
<polygon fill="black" stroke="black" points="327.5,-1741.94 324,-1731.94 320.5,-1741.94 327.5,-1741.94" style=""/>
</g>
<!-- S13 -->
<g id="node3" class="node" pointer-events="visible" data-name="S13">

<ellipse fill="none" stroke="black" cx="324" cy="-1623.6" rx="27" ry="18" style=""/>
<text text-anchor="middle" x="324" y="-1619.4" font-family="Times,serif" font-size="14.00" style="">S13</text>
</g>
<!-- S1&#45;&gt;S13 -->
<g id="edge2" class="edge" data-name="S1-&gt;S13">

<path fill="none" stroke="black" d="M324,-1694.25C324,-1682.56 324,-1666.79 324,-1653.22" style=""/>
<polygon fill="black" stroke="black" points="327.5,-1653.52 324,-1643.52 320.5,-1653.52 327.5,-1653.52" style=""/>
<text text-anchor="middle" x="350.11" y="-1663.8" font-family="Times,serif" font-size="14.00" style="">vv[0] = 1</text>
</g>
<!-- S3 -->
<g id="node4" class="node" pointer-events="visible" data-name="S3">

<ellipse fill="none" stroke="black" cx="225" cy="-1534.8" rx="27" ry="18" style=""/>
<text text-anchor="middle" x="225" y="-1530.6" font-family="Times,serif" font-size="14.00" style="">S3</text>
</g>
<!-- S13&#45;&gt;S3 -->
<g id="edge3" class="edge" data-name="S13-&gt;S3">

<path fill="none" stroke="black" stroke-dasharray="5,2" d="M302.8,-1612.08C291.35,-1605.83 277.35,-1597.26 266.37,-1587.6 257.39,-1579.7 248.88,-1569.68 241.94,-1560.56" style=""/>
<polygon fill="black" stroke="black" points="244.95,-1558.74 236.22,-1552.74 239.3,-1562.88 244.95,-1558.74" style=""/>
<text text-anchor="middle" x="293.82" y="-1575" font-family="Times,serif" font-size="14.00" style="">(!(vv[1]))</text>
</g>
<!-- S6 -->
<g id="node5" class="node" pointer-events="visible" data-name="S6">

<ellipse fill="none" stroke="black" cx="417" cy="-1534.8" rx="27" ry="18" style=""/>
<text text-anchor="middle" x="417" y="-1530.6" font-family="Times,serif" font-size="14.00" style="">S6</text>
</g>
<!-- S13&#45;&gt;S6 -->
<g id="edge4" class="edge" data-name="S13-&gt;S6">

<path fill="none" stroke="black" stroke-dasharray="5,2" d="M345.65,-1612.44C357.26,-1606.31 371.34,-1597.73 382,-1587.6 389.89,-1580.1 396.97,-1570.53 402.66,-1561.66" style=""/>
<polygon fill="black" stroke="black" points="405.49,-1563.75 407.68,-1553.39 399.5,-1560.12 405.49,-1563.75" style=""/>
<text text-anchor="middle" x="422.82" y="-1575" font-family="Times,serif" font-size="14.00" style="">(!(vv[2]))</text>
</g>
<!-- S9 -->
<g id="node6" class="node" pointer-events="visible" data-name="S9">

<ellipse fill="none" stroke="black" cx="324" cy="-1534.8" rx="27" ry="18" style=""/>
<text text-anchor="middle" x="324" y="-1530.6" font-family="Times,serif" font-size="14.00" style="">S9</text>
</g>
<!-- S13&#45;&gt;S9 -->
<g id="edge5" class="edge" data-name="S13-&gt;S9">

<path fill="none" stroke="black" stroke-dasharray="5,2" d="M324,-1605.45C324,-1593.76 324,-1577.99 324,-1564.42" style=""/>
<polygon fill="black" stroke="black" points="327.5,-1564.72 324,-1554.72 320.5,-1564.72 327.5,-1564.72" style=""/>
<text text-anchor="middle" x="350.82" y="-1575" font-family="Times,serif" font-size="14.00" style="">(!(vv[3]))</text>
</g>
<!-- S4 -->
<g id="node7" class="node" pointer-events="visible" data-name="S4">

<ellipse fill="none" stroke="black" cx="208" cy="-1446" rx="27" ry="18" style=""/>
<text text-anchor="middle" x="208" y="-1441.8" font-family="Times,serif" font-size="14.00" style="">S4</text>
</g>
<!-- S3&#45;&gt;S4 -->
<g id="edge6" class="edge" data-name="S3-&gt;S4">

<path fill="none" stroke="black" stroke-dasharray="5,2" d="M221.42,-1516.72C220.24,-1511.03 218.94,-1504.64 217.78,-1498.8 216.29,-1491.26 214.73,-1483.09 213.3,-1475.52" style=""/>
<polygon fill="black" stroke="black" points="216.75,-1474.95 211.47,-1465.77 209.87,-1476.24 216.75,-1474.95" style=""/>
<text text-anchor="middle" x="260.11" y="-1486.2" font-family="Times,serif" font-size="14.00" style="">cost = (cost+7)</text>
</g>
<!-- S7 -->
<g id="node35" class="node" pointer-events="visible" data-name="S7">

<ellipse fill="none" stroke="black" cx="423" cy="-1284" rx="27" ry="18" style=""/>
<text text-anchor="middle" x="423" y="-1279.8" font-family="Times,serif" font-size="14.00" style="">S7</text>
</g>
<!-- S6&#45;&gt;S7 -->
<g id="edge40" class="edge" data-name="S6-&gt;S7">

<path fill="none" stroke="black" stroke-dasharray="5,2" d="M417.42,-1516.3C418.44,-1474.01 421.05,-1365.89 422.3,-1313.85" style=""/>
<polygon fill="black" stroke="black" points="425.8,-1314.07 422.54,-1303.99 418.8,-1313.9 425.8,-1314.07" style=""/>
<text text-anchor="middle" x="461.11" y="-1441.8" font-family="Times,serif" font-size="14.00" style="">cost = (cost+9)</text>
</g>
<!-- S10 -->
<g id="node36" class="node" pointer-events="visible" data-name="S10">

<ellipse fill="none" stroke="black" cx="345" cy="-1392" rx="27" ry="18" style=""/>
<text text-anchor="middle" x="345" y="-1387.8" font-family="Times,serif" font-size="14.00" style="">S10</text>
</g>
<!-- S9&#45;&gt;S10 -->
<g id="edge42" class="edge" data-name="S9-&gt;S10">

<path fill="none" stroke="black" stroke-dasharray="5,2" d="M323.36,-1516.47C323.22,-1506.38 323.41,-1493.43 324.78,-1482 327.26,-1461.29 332.54,-1438.35 337.08,-1420.95" style=""/>
<polygon fill="black" stroke="black" points="340.44,-1421.91 339.67,-1411.34 333.68,-1420.08 340.44,-1421.91" style=""/>
<text text-anchor="middle" x="367.11" y="-1486.2" font-family="Times,serif" font-size="14.00" style="">cost = (cost+2)</text>
</g>
<!-- S26 -->
<g id="node8" class="node" pointer-events="visible" data-name="S26">

<ellipse fill="none" stroke="black" cx="170" cy="-1338" rx="27" ry="18" style=""/>
<text text-anchor="middle" x="170" y="-1333.8" font-family="Times,serif" font-size="14.00" style="">S26</text>
</g>
<!-- S4&#45;&gt;S26 -->
<g id="edge7" class="edge" data-name="S4-&gt;S26">

<path fill="none" stroke="black" d="M201.89,-1427.97C195.97,-1411.43 186.87,-1386.05 179.9,-1366.63" style=""/>
<polygon fill="black" stroke="black" points="183.27,-1365.65 176.6,-1357.41 176.68,-1368.01 183.27,-1365.65" style=""/>
<text text-anchor="middle" x="216.59" y="-1387.8" font-family="Times,serif" font-size="14.00" style="">goto P1</text>
</g>
<!-- S24 -->
<g id="node9" class="node" pointer-events="visible" data-name="S24">

<ellipse fill="none" stroke="black" cx="163" cy="-1230" rx="27" ry="18" style=""/>
<text text-anchor="middle" x="163" y="-1225.8" font-family="Times,serif" font-size="14.00" style="">S24</text>
</g>
<!-- S26&#45;&gt;S24 -->
<g id="edge8" class="edge" data-name="S26-&gt;S24">

<path fill="none" stroke="black" stroke-dasharray="5,2" d="M168.26,-1319.56C167.74,-1313.96 167.2,-1307.72 166.78,-1302 165.77,-1288.1 164.92,-1272.65 164.28,-1259.72" style=""/>
<polygon fill="black" stroke="black" points="167.77,-1259.56 163.8,-1249.74 160.78,-1259.89 167.77,-1259.56" style=""/>
<text text-anchor="middle" x="193.11" y="-1279.8" font-family="Times,serif" font-size="14.00" style="">vv[1] = 1</text>
</g>
<!-- S16 -->
<g id="node10" class="node" pointer-events="visible" data-name="S16">

<ellipse fill="none" stroke="black" cx="288" cy="-1141.2" rx="27" ry="18" style=""/>
<text text-anchor="middle" x="288" y="-1137" font-family="Times,serif" font-size="14.00" style="">S16</text>
</g>
<!-- S24&#45;&gt;S16 -->
<g id="edge9" class="edge" data-name="S24-&gt;S16">

<path fill="none" stroke="black" stroke-dasharray="5,2" d="M183.22,-1217.57C194.53,-1210.98 208.77,-1202.37 221,-1194 235.21,-1184.27 250.44,-1172.6 262.79,-1162.8" style=""/>
<polygon fill="black" stroke="black" points="264.81,-1165.67 270.42,-1156.68 260.43,-1160.2 264.81,-1165.67" style=""/>
<text text-anchor="middle" x="270.82" y="-1181.4" font-family="Times,serif" font-size="14.00" style="">(!(vv[2]))</text>
</g>
<!-- S19 -->
<g id="node11" class="node" pointer-events="visible" data-name="S19">

<ellipse fill="none" stroke="black" cx="162" cy="-1141.2" rx="27" ry="18" style=""/>
<text text-anchor="middle" x="162" y="-1137" font-family="Times,serif" font-size="14.00" style="">S19</text>
</g>
<!-- S24&#45;&gt;S19 -->
<g id="edge10" class="edge" data-name="S24-&gt;S19">

<path fill="none" stroke="black" stroke-dasharray="5,2" d="M162.8,-1211.85C162.67,-1200.16 162.49,-1184.39 162.33,-1170.82" style=""/>
<polygon fill="black" stroke="black" points="165.83,-1171.08 162.22,-1161.12 158.83,-1171.16 165.83,-1171.08" style=""/>
<text text-anchor="middle" x="189.82" y="-1181.4" font-family="Times,serif" font-size="14.00" style="">(!(vv[3]))</text>
</g>
<!-- S22 -->
<g id="node12" class="node" pointer-events="visible" data-name="S22">

<ellipse fill="none" stroke="black" cx="85" cy="-1141.2" rx="27" ry="18" style=""/>
<text text-anchor="middle" x="85" y="-1137" font-family="Times,serif" font-size="14.00" style="">S22</text>
</g>
<!-- S24&#45;&gt;S22 -->
<g id="edge11" class="edge" data-name="S24-&gt;S22">

<path fill="none" stroke="black" stroke-dasharray="5,2" d="M149.77,-1214.28C137.85,-1201.01 120.12,-1181.29 106.23,-1165.82" style=""/>
<polygon fill="black" stroke="black" points="108.86,-1163.51 99.57,-1158.41 103.65,-1168.19 108.86,-1163.51" style=""/>
<text text-anchor="middle" x="141.88" y="-1181.4" font-family="Times,serif" font-size="14.00" style="">else</text>
</g>
<!-- S17 -->
<g id="node13" class="node" pointer-events="visible" data-name="S17">

<ellipse fill="none" stroke="black" cx="294" cy="-1052.4" rx="27" ry="18" style=""/>
<text text-anchor="middle" x="294" y="-1048.2" font-family="Times,serif" font-size="14.00" style="">S17</text>
</g>
<!-- S16&#45;&gt;S17 -->
<g id="edge12" class="edge" data-name="S16-&gt;S17">

<path fill="none" stroke="black" stroke-dasharray="5,2" d="M275.56,-1124.97C268.75,-1114.74 262.49,-1100.9 266.78,-1088.4 268.16,-1084.38 270.21,-1080.46 272.58,-1076.79" style=""/>
<polygon fill="black" stroke="black" points="275.25,-1079.07 278.45,-1068.97 269.65,-1074.87 275.25,-1079.07" style=""/>
<text text-anchor="middle" x="309.11" y="-1092.6" font-family="Times,serif" font-size="14.00" style="">cost = (cost+3)</text>
</g>
<!-- S20 -->
<g id="node33" class="node" pointer-events="visible" data-name="S20">

<ellipse fill="none" stroke="black" cx="140" cy="-890.4" rx="27" ry="18" style=""/>
<text text-anchor="middle" x="140" y="-886.2" font-family="Times,serif" font-size="14.00" style="">S20</text>
</g>
<!-- S19&#45;&gt;S20 -->
<g id="edge36" class="edge" data-name="S19-&gt;S20">

<path fill="none" stroke="black" stroke-dasharray="5,2" d="M158.98,-1122.84C156.78,-1112.5 153.25,-1099.31 148,-1088.4 143.69,-1079.46 137.87,-1079.83 134.78,-1070.4 117.99,-1019.17 126.34,-955.22 133.48,-919.28" style=""/>
<polygon fill="black" stroke="black" points="136.86,-920.22 135.5,-909.71 130.01,-918.77 136.86,-920.22" style=""/>
<text text-anchor="middle" x="177.11" y="-1048.2" font-family="Times,serif" font-size="14.00" style="">cost = (cost+7)</text>
</g>
<!-- S23 -->
<g id="node34" class="node" pointer-events="visible" data-name="S23">

<ellipse fill="none" stroke="black" cx="73" cy="-998.4" rx="27" ry="18" style=""/>
<text text-anchor="middle" x="73" y="-994.2" font-family="Times,serif" font-size="14.00" style="">S23</text>
</g>
<!-- S22&#45;&gt;S23 -->
<g id="edge38" class="edge" data-name="S22-&gt;S23">

<path fill="none" stroke="black" stroke-dasharray="5,2" d="M73.1,-1124.67C69.35,-1118.88 65.69,-1112.04 63.78,-1105.2 56.58,-1079.43 60.51,-1048.88 65.26,-1027.25" style=""/>
<polygon fill="black" stroke="black" points="68.62,-1028.25 67.56,-1017.7 61.81,-1026.6 68.62,-1028.25" style=""/>
<text text-anchor="middle" x="106.11" y="-1092.6" font-family="Times,serif" font-size="14.00" style="">cost = (cost+4)</text>
</g>
<!-- S39 -->
<g id="node14" class="node" pointer-events="visible" data-name="S39">

<ellipse fill="none" stroke="black" cx="422" cy="-944.4" rx="27" ry="18" style=""/>
<text text-anchor="middle" x="422" y="-940.2" font-family="Times,serif" font-size="14.00" style="">S39</text>
</g>
<!-- S17&#45;&gt;S39 -->
<g id="edge13" class="edge" data-name="S17-&gt;S39">

<path fill="none" stroke="black" d="M290.37,-1034.19C288.1,-1018.42 287.59,-995.32 299.82,-980.4 319.84,-955.99 355.64,-947.93 383.33,-945.57" style=""/>
<polygon fill="black" stroke="black" points="383.36,-949.08 393.12,-944.97 382.93,-942.09 383.36,-949.08" style=""/>
<text text-anchor="middle" x="321.59" y="-994.2" font-family="Times,serif" font-size="14.00" style="">goto P2</text>
</g>
<!-- S37 -->
<g id="node15" class="node" pointer-events="visible" data-name="S37">

<ellipse fill="none" stroke="black" cx="419" cy="-836.4" rx="27" ry="18" style=""/>
<text text-anchor="middle" x="419" y="-832.2" font-family="Times,serif" font-size="14.00" style="">S37</text>
</g>
<!-- S39&#45;&gt;S37 -->
<g id="edge14" class="edge" data-name="S39-&gt;S37">

<path fill="none" stroke="black" stroke-dasharray="5,2" d="M421.52,-926.37C421.06,-910.16 420.36,-885.46 419.81,-866.19" style=""/>
<polygon fill="black" stroke="black" points="423.32,-866.15 419.53,-856.25 416.32,-866.35 423.32,-866.15" style=""/>
<text text-anchor="middle" x="446.11" y="-886.2" font-family="Times,serif" font-size="14.00" style="">vv[2] = 1</text>
</g>
<!-- S29 -->
<g id="node16" class="node" pointer-events="visible" data-name="S29">

<ellipse fill="none" stroke="black" cx="341" cy="-747.6" rx="27" ry="18" style=""/>
<text text-anchor="middle" x="341" y="-743.4" font-family="Times,serif" font-size="14.00" style="">S29</text>
</g>
<!-- S37&#45;&gt;S29 -->
<g id="edge15" class="edge" data-name="S37-&gt;S29">

<path fill="none" stroke="black" stroke-dasharray="5,2" d="M395.94,-826.51C383.59,-820.72 369,-812.06 359.37,-800.4 353.77,-793.62 349.82,-785.02 347.06,-776.77" style=""/>
<polygon fill="black" stroke="black" points="350.5,-776.08 344.4,-767.42 343.77,-778 350.5,-776.08" style=""/>
<text text-anchor="middle" x="386.82" y="-787.8" font-family="Times,serif" font-size="14.00" style="">(!(vv[1]))</text>
</g>
<!-- S32 -->
<g id="node17" class="node" pointer-events="visible" data-name="S32">

<ellipse fill="none" stroke="black" cx="416" cy="-747.6" rx="27" ry="18" style=""/>
<text text-anchor="middle" x="416" y="-743.4" font-family="Times,serif" font-size="14.00" style="">S32</text>
</g>
<!-- S37&#45;&gt;S32 -->
<g id="edge16" class="edge" data-name="S37-&gt;S32">

<path fill="none" stroke="black" stroke-dasharray="5,2" d="M418.41,-818.25C418,-806.56 417.46,-790.79 416.99,-777.22" style=""/>
<polygon fill="black" stroke="black" points="420.5,-777.4 416.65,-767.52 413.5,-777.64 420.5,-777.4" style=""/>
<text text-anchor="middle" x="443.82" y="-787.8" font-family="Times,serif" font-size="14.00" style="">(!(vv[3]))</text>
</g>
<!-- S35 -->
<g id="node18" class="node" pointer-events="visible" data-name="S35">

<ellipse fill="none" stroke="black" cx="504" cy="-747.6" rx="27" ry="18" style=""/>
<text text-anchor="middle" x="504" y="-743.4" font-family="Times,serif" font-size="14.00" style="">S35</text>
</g>
<!-- S37&#45;&gt;S35 -->
<g id="edge17" class="edge" data-name="S37-&gt;S35">

<path fill="none" stroke="black" stroke-dasharray="5,2" d="M440.76,-825.14C451.96,-819.09 465.27,-810.61 475,-800.4 481.87,-793.19 487.69,-784.03 492.27,-775.43" style=""/>
<polygon fill="black" stroke="black" points="495.27,-777.26 496.56,-766.74 489,-774.16 495.27,-777.26" style=""/>
<text text-anchor="middle" x="496.88" y="-787.8" font-family="Times,serif" font-size="14.00" style="">else</text>
</g>
<!-- S30 -->
<g id="node19" class="node" pointer-events="visible" data-name="S30">

<ellipse fill="none" stroke="black" cx="319" cy="-658.8" rx="27" ry="18" style=""/>
<text text-anchor="middle" x="319" y="-654.6" font-family="Times,serif" font-size="14.00" style="">S30</text>
</g>
<!-- S29&#45;&gt;S30 -->
<g id="edge18" class="edge" data-name="S29-&gt;S30">

<path fill="none" stroke="black" stroke-dasharray="5,2" d="M326.36,-732.24C321.36,-726.37 316.38,-719.17 313.78,-711.6 311.21,-704.11 311.01,-695.67 311.86,-687.82" style=""/>
<polygon fill="black" stroke="black" points="315.3,-688.48 313.53,-678.04 308.4,-687.3 315.3,-688.48" style=""/>
<text text-anchor="middle" x="356.11" y="-699" font-family="Times,serif" font-size="14.00" style="">cost = (cost+7)</text>
</g>
<!-- S33 -->
<g id="node20" class="node" pointer-events="visible" data-name="S33">

<ellipse fill="none" stroke="black" cx="398" cy="-658.8" rx="27" ry="18" style=""/>
<text text-anchor="middle" x="398" y="-654.6" font-family="Times,serif" font-size="14.00" style="">S33</text>
</g>
<!-- S32&#45;&gt;S33 -->
<g id="edge20" class="edge" data-name="S32-&gt;S33">

<path fill="none" stroke="black" stroke-dasharray="5,2" d="M409.9,-729.68C408.03,-723.99 406.12,-717.58 404.78,-711.6 403.12,-704.17 401.82,-696.03 400.82,-688.46" style=""/>
<polygon fill="black" stroke="black" points="404.31,-688.23 399.67,-678.71 397.36,-689.05 404.31,-688.23" style=""/>
<text text-anchor="middle" x="447.11" y="-699" font-family="Times,serif" font-size="14.00" style="">cost = (cost+8)</text>
</g>
<!-- S36 -->
<g id="node32" class="node" pointer-events="visible" data-name="S36">

<ellipse fill="none" stroke="black" cx="505" cy="-604.8" rx="27" ry="18" style=""/>
<text text-anchor="middle" x="505" y="-600.6" font-family="Times,serif" font-size="14.00" style="">S36</text>
</g>
<!-- S35&#45;&gt;S36 -->
<g id="edge34" class="edge" data-name="S35-&gt;S36">

<path fill="none" stroke="black" stroke-dasharray="5,2" d="M504.12,-729.34C504.29,-705.69 504.59,-662.92 504.8,-634.44" style=""/>
<polygon fill="black" stroke="black" points="508.29,-634.74 504.87,-624.72 501.29,-634.69 508.29,-634.74" style=""/>
<text text-anchor="middle" x="546.11" y="-699" font-family="Times,serif" font-size="14.00" style="">cost = (cost+6)</text>
</g>
<!-- S30&#45;&gt;S26 -->
<g id="edge19" class="edge" data-name="S30-&gt;S26">

<path fill="none" stroke="black" stroke-width="2" d="M297.3,-669.92C271.82,-683.47 233,-710.11 233,-746.6 233,-1231 233,-1231 233,-1231 233,-1263.16 236.43,-1274.97 219,-1302 214.37,-1309.19 207.69,-1315.36 200.75,-1320.42" style=""/>
<polygon fill="black" stroke="black" stroke-width="2" points="200.25,-1316.56 193.82,-1324.98 204.1,-1322.41 200.25,-1316.56" style=""/>
<text text-anchor="middle" x="254.59" y="-994.2" font-family="Times,serif" font-size="14.00" style="">goto P1</text>
</g>
<!-- S52 -->
<g id="node21" class="node" pointer-events="visible" data-name="S52">

<ellipse fill="none" stroke="black" cx="264" cy="-550.8" rx="27" ry="18" style=""/>
<text text-anchor="middle" x="264" y="-546.6" font-family="Times,serif" font-size="14.00" style="">S52</text>
</g>
<!-- S33&#45;&gt;S52 -->
<g id="edge21" class="edge" data-name="S33-&gt;S52">

<path fill="none" stroke="black" stroke-width="2" d="M381.03,-644.38C357.97,-626.14 316.55,-593.37 289.68,-572.11" style=""/>
<polygon fill="black" stroke="black" stroke-width="2" points="293.22,-570.45 283.21,-566.99 288.88,-575.94 293.22,-570.45" style=""/>
<text text-anchor="middle" x="372.59" y="-600.6" font-family="Times,serif" font-size="14.00" style="">goto P3</text>
</g>
<!-- S50 -->
<g id="node22" class="node" pointer-events="visible" data-name="S50">

<ellipse fill="none" stroke="black" cx="264" cy="-462" rx="27" ry="18" style=""/>
<text text-anchor="middle" x="264" y="-457.8" font-family="Times,serif" font-size="14.00" style="">S50</text>
</g>
<!-- S52&#45;&gt;S50 -->
<g id="edge22" class="edge" data-name="S52-&gt;S50">

<path fill="none" stroke="black" stroke-dasharray="5,2" d="M264,-532.65C264,-520.96 264,-505.19 264,-491.62" style=""/>
<polygon fill="black" stroke="black" points="267.5,-491.92 264,-481.92 260.5,-491.92 267.5,-491.92" style=""/>
<text text-anchor="middle" x="290.11" y="-502.2" font-family="Times,serif" font-size="14.00" style="">vv[3] = 1</text>
</g>
<!-- S42 -->
<g id="node23" class="node" pointer-events="visible" data-name="S42">

<ellipse fill="none" stroke="black" cx="158" cy="-373.2" rx="27" ry="18" style=""/>
<text text-anchor="middle" x="158" y="-369" font-family="Times,serif" font-size="14.00" style="">S42</text>
</g>
<!-- S50&#45;&gt;S42 -->
<g id="edge23" class="edge" data-name="S50-&gt;S42">

<path fill="none" stroke="black" stroke-dasharray="5,2" d="M243.09,-450.14C231.73,-443.79 217.72,-435.23 206.37,-426 196.09,-417.65 185.91,-407.16 177.56,-397.82" style=""/>
<polygon fill="black" stroke="black" points="180.36,-395.71 171.16,-390.45 175.08,-400.3 180.36,-395.71" style=""/>
<text text-anchor="middle" x="233.82" y="-413.4" font-family="Times,serif" font-size="14.00" style="">(!(vv[1]))</text>
</g>
<!-- S45 -->
<g id="node24" class="node" pointer-events="visible" data-name="S45">

<ellipse fill="none" stroke="black" cx="371" cy="-373.2" rx="27" ry="18" style=""/>
<text text-anchor="middle" x="371" y="-369" font-family="Times,serif" font-size="14.00" style="">S45</text>
</g>
<!-- S50&#45;&gt;S45 -->
<g id="edge24" class="edge" data-name="S50-&gt;S45">

<path fill="none" stroke="black" stroke-dasharray="5,2" d="M280.72,-447.44C298.07,-433.36 325.43,-411.17 345.49,-394.9" style=""/>
<polygon fill="black" stroke="black" points="347.66,-397.64 353.22,-388.62 343.25,-392.2 347.66,-397.64" style=""/>
<text text-anchor="middle" x="354.82" y="-413.4" font-family="Times,serif" font-size="14.00" style="">(!(vv[2]))</text>
</g>
<!-- S48 -->
<g id="node25" class="node" pointer-events="visible" data-name="S48">

<ellipse fill="none" stroke="black" cx="264" cy="-373.2" rx="27" ry="18" style=""/>
<text text-anchor="middle" x="264" y="-369" font-family="Times,serif" font-size="14.00" style="">S48</text>
</g>
<!-- S50&#45;&gt;S48 -->
<g id="edge25" class="edge" data-name="S50-&gt;S48">

<path fill="none" stroke="black" stroke-dasharray="5,2" d="M264,-443.85C264,-432.16 264,-416.39 264,-402.82" style=""/>
<polygon fill="black" stroke="black" points="267.5,-403.12 264,-393.12 260.5,-403.12 267.5,-403.12" style=""/>
<text text-anchor="middle" x="274.88" y="-413.4" font-family="Times,serif" font-size="14.00" style="">else</text>
</g>
<!-- S43 -->
<g id="node26" class="node" pointer-events="visible" data-name="S43">

<ellipse fill="none" stroke="black" cx="27" cy="-284.4" rx="27" ry="18" style=""/>
<text text-anchor="middle" x="27" y="-280.2" font-family="Times,serif" font-size="14.00" style="">S43</text>
</g>
<!-- S42&#45;&gt;S43 -->
<g id="edge26" class="edge" data-name="S42-&gt;S43">

<path fill="none" stroke="black" stroke-dasharray="5,2" d="M139.23,-359.76C117.25,-345.2 80.61,-320.92 55.2,-304.08" style=""/>
<polygon fill="black" stroke="black" points="57.27,-301.26 47,-298.65 53.4,-307.09 57.27,-301.26" style=""/>
<text text-anchor="middle" x="147.11" y="-324.6" font-family="Times,serif" font-size="14.00" style="">cost = (cost+3)</text>
</g>
<!-- S46 -->
<g id="node27" class="node" pointer-events="visible" data-name="S46">

<ellipse fill="none" stroke="black" cx="597" cy="-284.4" rx="27" ry="18" style=""/>
<text text-anchor="middle" x="597" y="-280.2" font-family="Times,serif" font-size="14.00" style="">S46</text>
</g>
<!-- S45&#45;&gt;S46 -->
<g id="edge28" class="edge" data-name="S45-&gt;S46">

<path fill="none" stroke="black" stroke-dasharray="5,2" d="M393.91,-363.4C433.93,-348.03 516.72,-316.23 563.29,-298.35" style=""/>
<polygon fill="black" stroke="black" points="564.53,-301.62 572.61,-294.77 562.02,-295.08 564.53,-301.62" style=""/>
<text text-anchor="middle" x="546.11" y="-324.6" font-family="Times,serif" font-size="14.00" style="">cost = (cost+8)</text>
</g>
<!-- S49 -->
<g id="node28" class="node" pointer-events="visible" data-name="S49">

<ellipse fill="none" stroke="black" cx="264" cy="-284.4" rx="27" ry="18" style=""/>
<text text-anchor="middle" x="264" y="-280.2" font-family="Times,serif" font-size="14.00" style="">S49</text>
</g>
<!-- S48&#45;&gt;S49 -->
<g id="edge30" class="edge" data-name="S48-&gt;S49">

<path fill="none" stroke="black" stroke-dasharray="5,2" d="M264,-355.05C264,-343.36 264,-327.59 264,-314.02" style=""/>
<polygon fill="black" stroke="black" points="267.5,-314.32 264,-304.32 260.5,-314.32 267.5,-314.32" style=""/>
<text text-anchor="middle" x="306.11" y="-324.6" font-family="Times,serif" font-size="14.00" style="">cost = (cost+2)</text>
</g>
<!-- S43&#45;&gt;S26 -->
<g id="edge27" class="edge" data-name="S43-&gt;S26">

<path fill="none" stroke="black" stroke-width="2" d="M26.37,-302.69C25.78,-320.21 25,-348.08 25,-372.2 25,-1231 25,-1231 25,-1231 25,-1284.81 90.9,-1314.25 133.84,-1327.71" style=""/>
<polygon fill="black" stroke="black" stroke-width="2" points="131.26,-1330.6 141.84,-1330.08 133.25,-1323.88 131.26,-1330.6" style=""/>
<text text-anchor="middle" x="46.59" y="-787.8" font-family="Times,serif" font-size="14.00" style="">goto P1</text>
</g>
<!-- S46&#45;&gt;S39 -->
<g id="edge29" class="edge" data-name="S46-&gt;S39">

<path fill="none" stroke="black" stroke-width="2" d="M601.11,-302.58C604.92,-320.01 610,-347.82 610,-372.2 610,-837.4 610,-837.4 610,-837.4 610,-905.65 514.84,-930.44 459.92,-939.06" style=""/>
<polygon fill="black" stroke="black" stroke-width="2" points="460.93,-935.38 451.53,-940.28 461.93,-942.31 460.93,-935.38" style=""/>
<text text-anchor="middle" x="631.59" y="-600.6" font-family="Times,serif" font-size="14.00" style="">goto P2</text>
</g>
<!-- S53 -->
<g id="node29" class="node" pointer-events="visible" data-name="S53">

<polygon fill="none" stroke="blue" stroke-width="2" points="291,-213.6 237,-213.6 237,-177.6 291,-177.6 291,-213.6" style=""/>
<text text-anchor="middle" x="264" y="-191.4" font-family="Times,serif" font-size="14.00" style="">S53</text>
</g>
<!-- S49&#45;&gt;S53 -->
<g id="edge31" class="edge" data-name="S49-&gt;S53">

<path fill="none" stroke="black" stroke-width="2" d="M264,-266.25C264,-254.56 264,-238.79 264,-225.22" style=""/>
<polygon fill="black" stroke="black" stroke-width="2" points="267.5,-227.04 264,-217.04 260.5,-227.04 267.5,-227.04" style=""/>
<text text-anchor="middle" x="288.3" y="-235.8" font-family="Times,serif" font-size="14.00" style="">goto end</text>
</g>
<!-- S54 -->
<g id="node30" class="node" pointer-events="visible" data-name="S54">

<polygon fill="none" stroke="blue" stroke-width="2" points="291,-124.8 237,-124.8 237,-88.8 291,-88.8 291,-124.8" style=""/>
<text text-anchor="middle" x="264" y="-102.6" font-family="Times,serif" font-size="14.00" style="">S54</text>
</g>
<!-- S53&#45;&gt;S54 -->
<g id="edge32" class="edge" data-name="S53-&gt;S54">

<path fill="none" stroke="black" stroke-width="2" d="M264,-177.45C264,-165.76 264,-149.99 264,-136.42" style=""/>
<polygon fill="black" stroke="black" stroke-width="2" points="267.5,-138.24 264,-128.24 260.5,-138.24 267.5,-138.24" style=""/>
<text text-anchor="middle" x="294.04" y="-147" font-family="Times,serif" font-size="14.00" style="">{c_code1}</text>
</g>
<!-- S0 -->
<g id="node31" class="node" pointer-events="visible" data-name="S0">

<ellipse fill="none" stroke="black" cx="264" cy="-18" rx="27" ry="18" style=""/>
<text text-anchor="middle" x="264" y="-13.8" font-family="Times,serif" font-size="14.00" style="">S0</text>
</g>
<!-- S54&#45;&gt;S0 -->
<g id="edge33" class="edge" data-name="S54-&gt;S0">

<path fill="none" stroke="black" d="M264,-88.65C264,-76.96 264,-61.19 264,-47.62" style=""/>
<polygon fill="black" stroke="black" points="267.5,-47.92 264,-37.92 260.5,-47.92 267.5,-47.92" style=""/>
<text text-anchor="middle" x="278.77" y="-58.2" font-family="Times,serif" font-size="14.00" style="">-end-</text>
</g>
<!-- S36&#45;&gt;S53 -->
<g id="edge35" class="edge" data-name="S36-&gt;S53">

<path fill="none" stroke="black" stroke-width="2" d="M503.55,-586.4C502.08,-567.11 500,-535.05 500,-507.4 500,-507.4 500,-507.4 500,-283.4 500,-241.81 369.24,-214.04 302.38,-202.56" style=""/>
<polygon fill="black" stroke="black" stroke-width="2" points="304.5,-199.37 294.06,-201.17 303.34,-206.27 304.5,-199.37" style=""/>
<text text-anchor="middle" x="524.3" y="-413.4" font-family="Times,serif" font-size="14.00" style="">goto end</text>
</g>
<!-- S20&#45;&gt;S52 -->
<g id="edge37" class="edge" data-name="S20-&gt;S52">

<path fill="none" stroke="black" d="M144.26,-872.46C148.69,-853.3 155,-821.12 155,-793 155,-793 155,-793 155,-657.8 155,-614.57 199.61,-583.27 231.75,-566.33" style=""/>
<polygon fill="black" stroke="black" points="232.97,-569.63 240.33,-562.01 229.82,-563.38 232.97,-569.63" style=""/>
<text text-anchor="middle" x="176.59" y="-743.4" font-family="Times,serif" font-size="14.00" style="">goto P3</text>
</g>
<!-- S23&#45;&gt;S53 -->
<g id="edge39" class="edge" data-name="S23-&gt;S53">

<path fill="none" stroke="black" d="M75.63,-980.19C78.59,-959.26 83,-922.82 83,-891.4 83,-891.4 83,-891.4 83,-283.4 83,-220.87 171.92,-203.35 225.11,-198.47" style=""/>
<polygon fill="black" stroke="black" points="225.31,-201.96 235,-197.68 224.76,-194.99 225.31,-201.96" style=""/>
<text text-anchor="middle" x="107.3" y="-600.6" font-family="Times,serif" font-size="14.00" style="">goto end</text>
</g>
<!-- S7&#45;&gt;S39 -->
<g id="edge41" class="edge" data-name="S7-&gt;S39">

<path fill="none" stroke="black" d="M423,-1265.59C423,-1246.28 423,-1214.21 423,-1186.6 423,-1186.6 423,-1186.6 423,-1051.4 423,-1025.25 422.69,-995.47 422.42,-974.14" style=""/>
<polygon fill="black" stroke="black" points="425.92,-974.12 422.28,-964.17 418.92,-974.22 425.92,-974.12" style=""/>
<text text-anchor="middle" x="444.59" y="-1137" font-family="Times,serif" font-size="14.00" style="">goto P2</text>
</g>
<!-- S10&#45;&gt;S52 -->
<g id="edge43" class="edge" data-name="S10-&gt;S52">

<path fill="none" stroke="black" d="M350.25,-1373.93C356.18,-1353.13 365,-1316.84 365,-1285 365,-1285 365,-1285 365,-1051.4 365,-880.97 314.04,-844.38 283,-676.8 276.88,-643.78 271.29,-605.59 267.78,-580.2" style=""/>
<polygon fill="black" stroke="black" points="271.26,-579.78 266.44,-570.34 264.32,-580.72 271.26,-579.78" style=""/>
<text text-anchor="middle" x="386.59" y="-994.2" font-family="Times,serif" font-size="14.00" style="">goto P3</text>
</g>
</g>
</svg>